<svg height="235.22869873046875" viewBox="0.19889020919799805 0.1964111328125 150.18827104568481 235.22869873046875" width="150.18827104568481" xmlns="http://www.w3.org/2000/svg" xmlns:xlink="http://www.w3.org/1999/xlink">
<defs>
<clipPath id="clip-0">
<path clip-rule="nonzero" d="M 0 220 L 15 220 L 15 235.113281 L 0 235.113281 Z M 0 220 "/>
</clipPath>
<clipPath id="clip-1">
<path clip-rule="nonzero" d="M 135 220 L 150.171875 220 L 150.171875 235.113281 L 135 235.113281 Z M 135 220 "/>
</clipPath>
<clipPath id="clip-2">
<path clip-rule="nonzero" d="M 135 107 L 150.171875 107 L 150.171875 128 L 135 128 Z M 135 107 "/>
</clipPath>
<clipPath id="clip-3">
<path clip-rule="nonzero" d="M 0 0.136719 L 9 0.136719 L 9 9 L 0 9 Z M 0 0.136719 "/>
</clipPath>
<clipPath id="clip-4">
<path clip-rule="nonzero" d="M 0 0.136719 L 15 0.136719 L 15 15 L 0 15 Z M 0 0.136719 "/>
</clipPath>
<clipPath id="clip-5">
<path clip-rule="nonzero" d="M 141 0.136719 L 150 0.136719 L 150 9 L 141 9 Z M 141 0.136719 "/>
</clipPath>
<clipPath id="clip-6">
<path clip-rule="nonzero" d="M 135 0.136719 L 150.171875 0.136719 L 150.171875 15 L 135 15 Z M 135 0.136719 "/>
</clipPath>
<clipPath id="clip-7">
<path clip-rule="nonzero" d="M 0 0.136719 L 150.171875 0.136719 L 150.171875 235.113281 L 0 235.113281 Z M 0 0.136719 "/>
</clipPath>
</defs>
<path d="M 8.628906 230.699219 C 8.628906 228.371094 6.742188 226.484375 4.414062 226.484375 C 2.085938 226.484375 0.199219 228.371094 0.199219 230.699219 C 0.199219 233.027344 2.085938 234.914062 4.414062 234.914062 C 6.742188 234.914062 8.628906 233.027344 8.628906 230.699219 Z M 8.628906 230.699219 " fill="rgb(0%, 0%, 0%)" fill-opacity="1" fill-rule="nonzero"/>
<g clip-path="url(#clip-0)">
<path d="M 4.226687 -0.000326734 C 4.226687 2.334214 2.334768 4.226133 0.000227297 4.226133 C -2.334314 4.226133 -4.226232 2.334214 -4.226232 -0.000326734 C -4.226232 -2.334868 -2.334314 -4.226786 0.000227297 -4.226786 C 2.334768 -4.226786 4.226687 -2.334868 4.226687 -0.000326734 Z M 4.226687 -0.000326734 " fill="none" stroke="rgb(0%, 0%, 0%)" stroke-linecap="butt" stroke-linejoin="miter" stroke-miterlimit="10" stroke-opacity="1" stroke-width="0.3985" transform="matrix(0.997252, 0, 0, -0.997252, 4.413836, 230.698893)"/>
</g>
<path d="M 149.972656 230.699219 C 149.972656 228.371094 148.085938 226.484375 145.757812 226.484375 C 143.429688 226.484375 141.542969 228.371094 141.542969 230.699219 C 141.542969 233.027344 143.429688 234.914062 145.757812 234.914062 C 148.085938 234.914062 149.972656 233.027344 149.972656 230.699219 Z M 149.972656 230.699219 " fill="rgb(0%, 0%, 0%)" fill-opacity="1" fill-rule="nonzero"/>
<g clip-path="url(#clip-1)">
<path d="M 145.959969 -0.000326734 C 145.959969 2.334214 144.06805 4.226133 141.733509 4.226133 C 139.398968 4.226133 137.50705 2.334214 137.50705 -0.000326734 C 137.50705 -2.334868 139.398968 -4.226786 141.733509 -4.226786 C 144.06805 -4.226786 145.959969 -2.334868 145.959969 -0.000326734 Z M 145.959969 -0.000326734 " fill="none" stroke="rgb(0%, 0%, 0%)" stroke-linecap="butt" stroke-linejoin="miter" stroke-miterlimit="10" stroke-opacity="1" stroke-width="0.3985" transform="matrix(0.997252, 0, 0, -0.997252, 4.413836, 230.698893)"/>
</g>
<path d="M 4.226687 113.385515 C 4.226687 115.720056 2.334768 117.615892 0.000227297 117.615892 C -2.334314 117.615892 -4.226232 115.720056 -4.226232 113.385515 C -4.226232 111.050974 -2.334314 109.159056 0.000227297 109.159056 C 2.334768 109.159056 4.226687 111.050974 4.226687 113.385515 Z M 4.226687 113.385515 " fill="rgb(0%, 0%, 0%)" fill-opacity="1" fill-rule="nonzero" stroke="rgb(0%, 0%, 0%)" stroke-linecap="butt" stroke-linejoin="miter" stroke-miterlimit="10" stroke-opacity="1" stroke-width="0.3985" transform="matrix(0.997252, 0, 0, -0.997252, 4.413836, 230.698893)"/>
<path d="M 149.972656 117.625 C 149.972656 115.296875 148.085938 113.40625 145.757812 113.40625 C 143.429688 113.40625 141.542969 115.296875 141.542969 117.625 C 141.542969 119.953125 143.429688 121.839844 145.757812 121.839844 C 148.085938 121.839844 149.972656 119.953125 149.972656 117.625 Z M 149.972656 117.625 " fill="rgb(0%, 0%, 0%)" fill-opacity="1" fill-rule="nonzero"/>
<g clip-path="url(#clip-2)">
<path d="M 145.959969 113.385515 C 145.959969 115.720056 144.06805 117.615892 141.733509 117.615892 C 139.398968 117.615892 137.50705 115.720056 137.50705 113.385515 C 137.50705 111.050974 139.398968 109.159056 141.733509 109.159056 C 144.06805 109.159056 145.959969 111.050974 145.959969 113.385515 Z M 145.959969 113.385515 " fill="none" stroke="rgb(0%, 0%, 0%)" stroke-linecap="butt" stroke-linejoin="miter" stroke-miterlimit="10" stroke-opacity="1" stroke-width="0.3985" transform="matrix(0.997252, 0, 0, -0.997252, 4.413836, 230.698893)"/>
</g>
<g clip-path="url(#clip-3)">
<path d="M 8.628906 4.546875 C 8.628906 2.21875 6.742188 0.332031 4.414062 0.332031 C 2.085938 0.332031 0.199219 2.21875 0.199219 4.546875 C 0.199219 6.875 2.085938 8.761719 4.414062 8.761719 C 6.742188 8.761719 8.628906 6.875 8.628906 4.546875 Z M 8.628906 4.546875 " fill="rgb(0%, 0%, 0%)" fill-opacity="1" fill-rule="nonzero"/>
</g>
<g clip-path="url(#clip-4)">
<path d="M 4.226687 226.775274 C 4.226687 229.109816 2.334768 231.001734 0.000227297 231.001734 C -2.334314 231.001734 -4.226232 229.109816 -4.226232 226.775274 C -4.226232 224.440733 -2.334314 222.548815 0.000227297 222.548815 C 2.334768 222.548815 4.226687 224.440733 4.226687 226.775274 Z M 4.226687 226.775274 " fill="none" stroke="rgb(0%, 0%, 0%)" stroke-linecap="butt" stroke-linejoin="miter" stroke-miterlimit="10" stroke-opacity="1" stroke-width="0.3985" transform="matrix(0.997252, 0, 0, -0.997252, 4.413836, 230.698893)"/>
</g>
<g clip-path="url(#clip-5)">
<path d="M 149.972656 4.546875 C 149.972656 2.21875 148.085938 0.332031 145.757812 0.332031 C 143.429688 0.332031 141.542969 2.21875 141.542969 4.546875 C 141.542969 6.875 143.429688 8.761719 145.757812 8.761719 C 148.085938 8.761719 149.972656 6.875 149.972656 4.546875 Z M 149.972656 4.546875 " fill="rgb(0%, 0%, 0%)" fill-opacity="1" fill-rule="nonzero"/>
</g>
<g clip-path="url(#clip-6)">
<path d="M 145.959969 226.775274 C 145.959969 229.109816 144.06805 231.001734 141.733509 231.001734 C 139.398968 231.001734 137.50705 229.109816 137.50705 226.775274 C 137.50705 224.440733 139.398968 222.548815 141.733509 222.548815 C 144.06805 222.548815 145.959969 224.440733 145.959969 226.775274 Z M 145.959969 226.775274 " fill="none" stroke="rgb(0%, 0%, 0%)" stroke-linecap="butt" stroke-linejoin="miter" stroke-miterlimit="10" stroke-opacity="1" stroke-width="0.3985" transform="matrix(0.997252, 0, 0, -0.997252, 4.413836, 230.698893)"/>
</g>
<g clip-path="url(#clip-7)">
<path d="M 0.000227297 -0.000326734 L 141.733509 -0.000326734 L 0.000227297 -0.000326734 L 141.733509 113.385515 L 0.000227297 -0.000326734 L 141.733509 226.775274 L 0.000227297 113.385515 L 141.733509 113.385515 L 0.000227297 113.385515 L 141.733509 -0.000326734 L 0.000227297 226.775274 L 141.733509 113.385515 L 0.000227297 226.775274 L 141.733509 226.775274 " fill="none" stroke="rgb(0%, 0%, 0%)" stroke-linecap="butt" stroke-linejoin="miter" stroke-miterlimit="10" stroke-opacity="1" stroke-width="1.59404" transform="matrix(0.997252, 0, 0, -0.997252, 4.413836, 230.698893)"/>
</g>
</svg>